# Max2Obj Version 4.0 Mar 10th, 2001
#
mtllib ./Fence_06.mtl
g
# object Fence_06_solid to come ...
#
v  -63.976383 24.606300 0.000001
v  -73.818893 24.606300 0.000002
v  -63.976383 54.133858 -0.000001
v  -73.818909 54.133858 -0.000002
v  73.818893 24.606300 -0.000000
v  73.818893 54.133858 -0.000000
v  -77.559067 -19.685040 -0.000000
v  -78.149612 -19.685040 -1.022864
v  -79.330719 -19.685040 -1.022864
v  -79.921265 -19.685040 -0.000000
v  -79.330719 -19.685040 1.022864
v  -78.149612 -19.685040 1.022864
v  -77.556839 47.714066 -0.000000
v  -78.147385 47.714066 -1.022865
v  -79.328491 47.714066 -1.022865
v  -79.328491 47.714066 1.022864
v  -78.147385 47.714066 1.022864
v  -72.318138 53.543304 -1.022864
v  72.318596 53.543304 -1.022865
v  -72.318138 54.724411 -1.022864
v  -72.318138 55.314957 -0.000000
v  72.318596 55.314957 -0.000001
v  -72.318138 54.724411 1.022864
v  72.318596 53.543304 1.022863
v  -75.383018 54.763969 -1.022864
v  -75.087738 53.661987 -1.022864
v  -72.318138 52.952759 -0.000000
v  -74.940109 53.110992 0.000000
v  -72.318138 53.543304 1.022864
v  -75.087738 53.661980 1.022864
v  -75.383018 54.763969 1.022864
v  -75.530655 55.314957 0.000000
v  -77.909424 53.305351 -1.022864
v  -77.102715 52.498642 -1.022864
v  -76.699364 52.095291 -0.000000
v  -77.102715 52.498634 1.022864
v  -77.909424 53.305344 1.022864
v  -78.312775 53.708702 -0.000000
v  -79.368050 50.778946 -1.022864
v  -78.266068 50.483673 -1.022864
v  -77.715073 50.336037 -0.000000
v  -78.266052 50.483665 1.022864
v  -79.368042 50.778946 1.022864
v  -79.919037 50.926582 -0.000000
v  -79.919037 47.714066 -0.000000
v  77.559525 -19.685040 -0.000000
v  78.150070 -19.685040 1.022864
v  79.331177 -19.685040 1.022864
v  79.921722 -19.685040 0.000000
v  79.919495 47.714066 0.000000
v  79.331177 -19.685040 -1.022864
v  78.150070 -19.685040 -1.022864
v  72.318596 54.724411 1.022863
v  75.383476 54.763969 1.022864
v  75.531113 55.314957 -0.000001
v  75.088196 53.661987 1.022864
v  72.318596 52.952759 -0.000001
v  74.940567 53.110992 -0.000001
v  75.088196 53.661980 -1.022865
v  72.318596 54.724411 -1.022865
v  75.383476 54.763969 -1.022865
v  77.909882 53.305351 1.022864
v  78.313232 53.708702 -0.000000
v  77.103172 52.498642 1.022864
v  76.699821 52.095291 -0.000000
v  77.103172 52.498634 -1.022865
v  77.909882 53.305344 -1.022864
v  79.368507 50.778946 1.022864
v  79.919495 50.926582 0.000000
v  78.266525 50.483673 1.022864
v  77.715530 50.336037 -0.000000
v  78.266510 50.483665 -1.022864
v  79.368500 50.778946 -1.022864
v  79.328949 47.714066 1.022865
v  78.147842 47.714066 1.022864
v  77.557297 47.714066 0.000000
v  78.147842 47.714066 -1.022864
v  79.328949 47.714066 -1.022864
v  -78.149048 24.015518 -1.022864
v  -78.149017 25.196964 -1.022864
v  -77.558456 25.787872 -0.000000
v  -78.149017 25.197315 1.022864
v  -78.149048 24.015417 1.022864
v  -77.558243 23.424820 -0.000000
v  77.558746 23.425041 -0.000001
v  78.149277 24.015583 -1.022865
v  77.558685 25.787464 -0.000001
v  78.149246 25.196915 -1.022865
v  78.149277 24.015579 1.022864
v  78.149246 25.196939 1.022864
v  63.976379 54.133858 -0.000000
v  63.976379 24.606300 -0.000000
# 92 vertices

vt  0.875000 0.250000 0.000000
vt  0.125000 0.250000 0.000000
vt  -0.125000 0.250000 0.000000
vt  -0.125000 1.000000 0.000000
vt  0.875000 0.250000 0.000000
vt  0.125000 0.250000 0.000000
vt  3.125000 0.250000 0.000000
vt  3.125000 1.000000 0.000000
vt  -0.501818 0.664256 1.000000
vt  -0.501817 0.639057 1.000000
vt  -0.501822 0.765050 1.000000
vt  -0.501822 0.739857 1.000000
vt  -0.501822 0.714657 1.000000
vt  -0.501815 0.689460 1.000000
vt  1.210116 0.664260 1.000000
vt  1.210116 0.639098 1.000000
vt  1.210116 0.765074 1.000000
vt  1.210116 0.739852 1.000000
vt  1.210116 0.714619 1.000000
vt  1.210116 0.689422 1.000000
vt  -0.501821 0.613864 1.000000
vt  1.210116 0.613914 1.000000
vt  -0.088702 0.664260 1.000000
vt  -0.088702 0.639062 1.000000
vt  3.498178 0.639062 1.000000
vt  3.498178 0.664260 1.000000
vt  -0.088702 0.613865 1.000000
vt  3.498178 0.613859 1.000000
vt  -0.088702 0.765050 1.000000
vt  -0.088702 0.739852 1.000000
vt  3.498178 0.739849 1.000000
vt  3.498178 0.765050 1.000000
vt  -0.088702 0.714655 1.000000
vt  3.498178 0.714655 1.000000
vt  -0.088702 0.689457 1.000000
vt  3.498178 0.689457 1.000000
vt  -0.001822 0.664260 1.000000
vt  -0.001822 0.639062 1.000000
vt  0.079776 0.639062 1.000000
vt  0.079776 0.664260 1.000000
vt  -0.001822 0.613865 1.000000
vt  0.079776 0.613871 1.000000
vt  -0.001822 0.765050 1.000000
vt  -0.001822 0.739852 1.000000
vt  0.079776 0.739852 1.000000
vt  0.079776 0.765050 1.000000
vt  -0.001822 0.714655 1.000000
vt  0.079776 0.714655 1.000000
vt  -0.001822 0.689457 1.000000
vt  0.079776 0.689457 1.000000
vt  -0.001822 0.664260 1.000000
vt  -0.001822 0.639062 1.000000
vt  0.079776 0.639062 1.000000
vt  0.079776 0.664260 1.000000
vt  -0.001822 0.613865 1.000000
vt  0.079776 0.613871 1.000000
vt  -0.001822 0.765050 1.000000
vt  -0.001822 0.739852 1.000000
vt  0.079776 0.739852 1.000000
vt  0.079776 0.765050 1.000000
vt  -0.001822 0.714655 1.000000
vt  0.079776 0.714655 1.000000
vt  -0.001822 0.689457 1.000000
vt  0.079776 0.689457 1.000000
vt  -0.001822 0.664260 1.000000
vt  -0.001822 0.639062 1.000000
vt  0.079776 0.639062 1.000000
vt  0.079776 0.664260 1.000000
vt  -0.001822 0.613865 1.000000
vt  0.079776 0.613871 1.000000
vt  -0.001822 0.765050 1.000000
vt  -0.001822 0.739852 1.000000
vt  0.079776 0.739852 1.000000
vt  0.079776 0.765050 1.000000
vt  -0.001822 0.714655 1.000000
vt  0.079776 0.714655 1.000000
vt  -0.001822 0.689457 1.000000
vt  0.079776 0.689457 1.000000
vt  -0.001822 0.664260 1.000000
vt  -0.001822 0.639062 1.000000
vt  0.079776 0.639062 1.000000
vt  0.079776 0.664260 1.000000
vt  -0.001822 0.613865 1.000000
vt  0.079776 0.613871 1.000000
vt  -0.001822 0.765050 1.000000
vt  -0.001822 0.739852 1.000000
vt  0.079776 0.739852 1.000000
vt  0.079776 0.765050 1.000000
vt  -0.001822 0.714655 1.000000
vt  0.079776 0.714655 1.000000
vt  -0.001822 0.689457 1.000000
vt  0.079776 0.689457 1.000000
vt  -0.501818 0.664256 1.000000
vt  -0.501818 0.639058 1.000000
vt  1.210116 0.639098 1.000000
vt  1.210116 0.664260 1.000000
vt  -0.501821 0.613864 1.000000
vt  1.210116 0.613914 1.000000
vt  -0.501822 0.765050 1.000000
vt  -0.501822 0.739857 1.000000
vt  1.210116 0.739852 1.000000
vt  1.210116 0.765074 1.000000
vt  -0.501822 0.714657 1.000000
vt  1.210116 0.714619 1.000000
vt  -0.501818 0.689458 1.000000
vt  1.210116 0.689422 1.000000
vt  -0.001822 0.664260 1.000000
vt  -0.001822 0.639062 1.000000
vt  0.079776 0.639062 1.000000
vt  0.079776 0.664260 1.000000
vt  -0.001822 0.613865 1.000000
vt  0.079776 0.613871 1.000000
vt  -0.001822 0.765050 1.000000
vt  -0.001822 0.739852 1.000000
vt  0.079776 0.739852 1.000000
vt  0.079776 0.765050 1.000000
vt  -0.001822 0.714655 1.000000
vt  0.079776 0.714655 1.000000
vt  -0.001822 0.689457 1.000000
vt  0.079776 0.689457 1.000000
vt  -0.001822 0.664260 1.000000
vt  -0.001822 0.639062 1.000000
vt  0.079776 0.639062 1.000000
vt  0.079776 0.664260 1.000000
vt  -0.001822 0.613865 1.000000
vt  0.079776 0.613871 1.000000
vt  -0.001822 0.765050 1.000000
vt  -0.001822 0.739852 1.000000
vt  0.079776 0.739852 1.000000
vt  0.079776 0.765050 1.000000
vt  -0.001822 0.714655 1.000000
vt  0.079776 0.714655 1.000000
vt  -0.001822 0.689457 1.000000
vt  0.079776 0.689457 1.000000
vt  -0.001822 0.664260 1.000000
vt  -0.001822 0.639062 1.000000
vt  0.079776 0.639062 1.000000
vt  0.079776 0.664260 1.000000
vt  -0.001822 0.613865 1.000000
vt  0.079776 0.613871 1.000000
vt  -0.001822 0.765050 1.000000
vt  -0.001822 0.739852 1.000000
vt  0.079776 0.739852 1.000000
vt  0.079776 0.765050 1.000000
vt  -0.001822 0.714655 1.000000
vt  0.079776 0.714655 1.000000
vt  -0.001822 0.689457 1.000000
vt  0.079776 0.689457 1.000000
vt  -0.001822 0.664260 1.000000
vt  -0.001822 0.639062 1.000000
vt  0.079776 0.639062 1.000000
vt  0.079776 0.664260 1.000000
vt  -0.001822 0.613865 1.000000
vt  0.079776 0.613871 1.000000
vt  -0.001822 0.765050 1.000000
vt  -0.001822 0.739852 1.000000
vt  0.079776 0.739852 1.000000
vt  0.079776 0.765050 1.000000
vt  -0.001822 0.714655 1.000000
vt  0.079776 0.714655 1.000000
vt  -0.001822 0.689457 1.000000
vt  0.079776 0.689457 1.000000
vt  -0.218673 0.664260 1.000000
vt  -0.233318 0.639062 1.000000
vt  3.642783 0.639062 1.000000
vt  3.628138 0.664260 1.000000
vt  -0.233318 0.613865 1.000000
vt  3.642783 0.613858 1.000000
vt  -0.233318 0.765050 1.000000
vt  -0.218673 0.739853 1.000000
vt  3.628138 0.739849 1.000000
vt  3.642783 0.765050 1.000000
vt  -0.233318 0.714655 1.000000
vt  3.642783 0.714655 1.000000
vt  -0.233318 0.689457 1.000000
vt  3.642783 0.689457 1.000000
vt  0.608162 0.689439 1.000000
vt  0.653203 0.664260 1.000000
vt  0.638202 0.689439 1.000000
vt  0.608167 0.639080 1.000000
vt  0.593165 0.664260 1.000000
vt  0.638184 0.639081 1.000000
vt  0.593171 0.664260 1.000000
vt  0.608170 0.689439 1.000000
vt  0.653182 0.664260 1.000000
vt  0.638182 0.689439 1.000000
vt  0.608170 0.639080 1.000000
vt  0.638183 0.639081 1.000000
vt  0.125000 0.000000 0.000000
vt  0.875000 0.000000 0.000000
vt  0.875000 0.000000 0.000000
vt  0.125000 0.000000 0.000000
# 192 texture vertices

vn  0.000000 0.000000 1.000000
vn  0.000000 0.000000 1.000000
vn  -0.000000 0.000000 1.000000
vn  0.000000 0.000000 1.000000
vn  0.000000 0.000000 1.000000
vn  0.000000 0.000000 1.000000
vn  0.981967 -0.000017 -0.189050
vn  0.327328 -0.000004 -0.944911
vn  -0.654656 0.000022 -0.755927
vn  -0.981981 0.000032 0.188981
vn  -0.188983 0.000006 0.981980
vn  0.654603 -0.000010 0.755973
vn  0.993722 0.032570 -0.107029
vn  0.499935 0.007113 -0.866034
vn  -0.374340 -0.001625 -0.927290
vn  -0.499995 -0.002140 0.866025
vn  0.573474 0.014812 0.819090
vn  -0.017381 -0.504659 -0.863144
vn  0.007137 -0.499932 -0.866035
vn  0.002151 0.499995 -0.866025
vn  0.002145 0.999985 0.004949
vn  -0.002145 0.999985 -0.004949
vn  0.002195 0.504426 0.863452
vn  0.017381 -0.504659 0.863144
vn  -0.083709 0.489512 -0.867969
vn  0.165172 -0.471823 -0.866084
vn  -0.027341 -0.999607 -0.006150
vn  0.232880 -0.972491 -0.005371
vn  -0.007137 -0.499932 0.866035
vn  0.068417 -0.490875 0.868540
vn  -0.170126 0.470999 0.865573
vn  -0.257405 0.966292 0.004807
vn  -0.321440 0.384491 -0.865357
vn  0.384490 -0.321440 -0.865357
vn  0.707106 -0.707107 -0.000003
vn  0.321441 -0.384492 0.865356
vn  -0.384490 0.321439 0.865358
vn  -0.707106 0.707107 0.000001
vn  -0.470999 0.170127 -0.865573
vn  0.490873 -0.068417 -0.868541
vn  0.972490 -0.232882 0.005364
vn  0.471826 -0.165174 0.866082
vn  -0.489511 0.083709 0.867970
vn  -0.966291 0.257406 -0.004805
vn  -0.999986 -0.002128 -0.004948
vn  -1.000000 -0.000018 -0.000000
vn  -0.500003 -0.000009 0.866024
vn  0.654656 0.000022 0.755927
vn  0.981981 0.000032 -0.188980
vn  0.999986 -0.002128 0.004948
vn  0.188983 0.000006 -0.981980
vn  -0.654657 -0.000012 -0.755926
vn  -0.002151 0.499995 0.866025
vn  0.083709 0.489512 0.867969
vn  0.257405 0.966292 -0.004807
vn  -0.165172 -0.471823 0.866084
vn  0.027341 -0.999607 0.006150
vn  -0.232880 -0.972491 0.005371
vn  -0.068417 -0.490875 -0.868540
vn  -0.002195 0.504426 -0.863452
vn  0.170127 0.470999 -0.865573
vn  0.321439 0.384491 0.865357
vn  0.707106 0.707107 -0.000001
vn  -0.384490 -0.321440 0.865357
vn  -0.707106 -0.707107 0.000003
vn  -0.321441 -0.384492 -0.865356
vn  0.384490 0.321439 -0.865358
vn  0.470999 0.170127 0.865573
vn  0.966291 0.257406 0.004805
vn  -0.490873 -0.068417 0.868541
vn  -0.972490 -0.232882 -0.005364
vn  -0.471826 -0.165174 -0.866082
vn  0.489511 0.083709 -0.867970
vn  0.374340 -0.001625 0.927290
vn  -0.499934 0.007117 0.866034
vn  -0.993722 0.032574 0.107029
vn  -0.573474 0.014815 -0.819090
vn  0.499995 -0.002140 -0.866025
vn  1.731956 -0.000028 -3.000165
vn  0.000000 -0.000000 -2.000000
vn  0.000007 2.597952 0.499759
vn  0.000000 0.000000 2.000000
vn  0.865930 -0.000011 2.500166
vn  2.597885 -0.000044 0.499994
vn  -3.464113 -0.000063 -0.000000
vn  -0.866029 -0.000016 -2.499994
vn  0.000005 2.597956 -0.500244
vn  0.000002 0.000000 -2.000000
vn  -0.866030 -0.000016 2.499994
vn  -0.000001 -0.000000 2.000000
vn  -0.000000 0.000000 1.000000
vn  0.000000 0.000000 1.000000
# 92 vertex normals

g Fence_06_solid
usemtl Fence_06
s 2
f 1/191/1 3/192/3 4/2/4 2/1/2
f 92/7/92 91/8/91 3/4/3 1/3/1
f 92/190/92 5/5/5 6/6/6 91/189/91
s 1
f 7/9/7 8/10/8 79/180/79 84/181/84
f 80/182/80 79/180/79 15/22/15 14/16/14
f 8/10/8 9/21/9 15/22/15 79/180/79
f 9/11/9 10/12/10 45/18/45 15/17/15
f 10/12/10 11/13/11 16/19/16 45/18/45
f 83/177/83 82/179/82 11/13/11 12/14/12
f 17/20/17 16/19/16 11/13/11 82/179/82
f 12/14/12 7/9/7 84/181/84 83/177/83
f 27/23/27 18/24/18 19/25/19 57/26/57
f 18/24/18 20/27/20 60/28/60 19/25/19
f 20/29/20 21/30/21 22/31/22 60/32/60
f 21/30/21 23/33/23 53/34/53 22/31/22
f 23/33/23 29/35/29 24/36/24 53/34/53
f 29/35/29 27/23/27 57/26/57 24/36/24
f 21/37/21 20/38/20 25/39/25 32/40/32
f 20/38/20 18/41/18 26/42/26 25/39/25
f 18/43/18 27/44/27 28/45/28 26/46/26
f 27/44/27 29/47/29 30/48/30 28/45/28
f 29/47/29 23/49/23 31/50/31 30/48/30
f 23/49/23 21/37/21 32/40/32 31/50/31
f 32/51/32 25/52/25 33/53/33 38/54/38
f 25/52/25 26/55/26 34/56/34 33/53/33
f 26/57/26 28/58/28 35/59/35 34/60/34
f 28/58/28 30/61/30 36/62/36 35/59/35
f 30/61/30 31/63/31 37/64/37 36/62/36
f 31/63/31 32/51/32 38/54/38 37/64/37
f 38/65/38 33/66/33 39/67/39 44/68/44
f 33/66/33 34/69/34 40/70/40 39/67/39
f 34/71/34 35/72/35 41/73/41 40/74/40
f 35/72/35 36/75/36 42/76/42 41/73/41
f 36/75/36 37/77/37 43/78/43 42/76/42
f 37/77/37 38/65/38 44/68/44 43/78/43
f 44/79/44 39/80/39 15/81/15 45/82/45
f 39/80/39 40/83/40 14/84/14 15/81/15
f 40/85/40 41/86/41 13/87/13 14/88/14
f 41/86/41 42/89/42 17/90/17 13/87/13
f 42/89/42 43/91/43 16/92/16 17/90/17
f 43/91/43 44/79/44 45/82/45 16/92/16
f 47/94/47 89/187/89 85/183/85 46/93/46
f 90/188/90 89/187/89 74/98/74 75/95/75
f 47/94/47 48/97/48 74/98/74 89/187/89
f 48/99/48 49/100/49 50/101/50 74/102/74
f 49/100/49 51/103/51 78/104/78 50/101/50
f 86/184/86 88/186/88 51/103/51 52/105/52
f 77/106/77 78/104/78 51/103/51 88/186/88
f 52/105/52 46/93/46 85/183/85 86/184/86
f 22/107/22 53/108/53 54/109/54 55/110/55
f 53/108/53 24/111/24 56/112/56 54/109/54
f 24/113/24 57/114/57 58/115/58 56/116/56
f 57/114/57 19/117/19 59/118/59 58/115/58
f 19/117/19 60/119/60 61/120/61 59/118/59
f 60/119/60 22/107/22 55/110/55 61/120/61
f 55/121/55 54/122/54 62/123/62 63/124/63
f 54/122/54 56/125/56 64/126/64 62/123/62
f 56/127/56 58/128/58 65/129/65 64/130/64
f 58/128/58 59/131/59 66/132/66 65/129/65
f 59/131/59 61/133/61 67/134/67 66/132/66
f 61/133/61 55/121/55 63/124/63 67/134/67
f 63/135/63 62/136/62 68/137/68 69/138/69
f 62/136/62 64/139/64 70/140/70 68/137/68
f 64/141/64 65/142/65 71/143/71 70/144/70
f 65/142/65 66/145/66 72/146/72 71/143/71
f 66/145/66 67/147/67 73/148/73 72/146/72
f 67/147/67 63/135/63 69/138/69 73/148/73
f 69/149/69 68/150/68 74/151/74 50/152/50
f 68/150/68 70/153/70 75/154/75 74/151/74
f 70/155/70 71/156/71 76/157/76 75/158/75
f 71/156/71 72/159/72 77/160/77 76/157/76
f 72/159/72 73/161/73 78/162/78 77/160/77
f 73/161/73 69/149/69 50/152/50 78/162/78
s 2
f 84/163/84 79/164/79 86/165/86 85/166/85
f 79/164/79 80/167/80 88/168/88 86/165/86
f 80/169/80 81/170/81 87/171/87 88/172/88
f 81/170/81 82/173/82 90/174/90 87/171/87
f 82/173/82 83/175/83 89/176/89 90/174/90
f 83/175/83 84/163/84 85/166/85 89/176/89
s 1
f 81/178/81 13/15/13 17/20/17 82/179/82
f 14/16/14 13/15/13 81/178/81 80/182/80
f 87/185/87 76/96/76 77/106/77 88/186/88
f 75/95/75 76/96/76 87/185/87 90/188/90
# 83 faces

g
