# Blender v2.60 (sub 0) OBJ File: ''
# www.blender.org
mtllib picketfence.mtl
o Plane.009
v 3.741893 0.534212 -0.084732
v 3.741893 0.373252 -0.084734
v -0.227823 0.373253 -0.084734
v -0.227823 0.534212 -0.084732
v -0.227823 0.373253 -0.127972
v -0.227823 0.534212 -0.127970
v 3.741893 0.534212 -0.127970
v 3.741893 0.373253 -0.127972
vn -0.000000 -0.000008 1.000000
vn -1.000000 0.000003 0.000000
vn 0.000000 1.000000 0.000008
vn 1.000000 0.000000 -0.000000
vn -0.000000 -1.000000 -0.000008
vn 0.000000 0.000008 -1.000000
usemtl 
s off
f 1//1 4//1 3//1
f 1//1 3//1 2//1
f 3//2 4//2 6//2
f 3//2 6//2 5//2
f 4//3 1//3 7//3
f 4//3 7//3 6//3
f 1//4 2//4 8//4
f 1//4 8//4 7//4
f 2//5 3//5 5//5
f 2//5 5//5 8//5
f 7//6 8//6 5//6
f 7//6 5//6 6//6
o Plane.008
v 1.837276 1.000000 0.000001
v 1.837276 -1.000000 -0.000001
v 2.162724 -1.000000 -0.000001
v 2.162724 1.000000 0.000001
v 1.998209 1.283660 0.000001
v 1.998209 -1.000000 -0.000001
v 2.162724 -1.000000 -0.080277
v 1.998209 -1.000000 -0.080277
v 1.837276 -1.000000 -0.080277
v 2.162724 1.000000 -0.080276
v 1.998209 1.283660 -0.080276
v 1.837276 1.000000 -0.080276
vn -0.000001 -0.000001 1.000000
vn 0.000001 -0.000001 1.000000
vn -0.000001 -1.000000 -0.000001
vn -0.000000 -1.000000 -0.000001
vn 0.865040 0.501702 0.000000
vn -0.869769 0.493459 0.000000
vn -1.000000 0.000000 0.000000
vn -0.000001 0.000001 -1.000000
vn 0.000001 0.000001 -1.000000
usemtl 
s off
f 12//7 13//7 14//7
f 12//7 14//7 11//7
f 13//8 9//8 10//8
f 13//8 10//8 14//8
f 11//9 14//9 16//9
f 11//9 16//9 15//9
f 14//10 10//10 17//10
f 14//10 17//10 16//10
f 13//11 12//11 18//11
f 13//11 18//11 19//11
f 9//12 13//12 19//12
f 9//12 19//12 20//12
f 12//4 11//4 15//4
f 12//4 15//4 18//4
f 10//13 9//13 20//13
f 10//13 20//13 17//13
f 19//14 16//14 17//14
f 19//14 17//14 20//14
f 18//15 15//15 16//15
f 18//15 16//15 19//15
o Plane.007
v 2.337276 1.000000 0.000001
v 2.337276 -1.000000 -0.000001
v 2.662724 -1.000000 -0.000001
v 2.662724 1.000000 0.000001
v 2.498209 1.283660 0.000001
v 2.498209 -1.000000 -0.000001
v 2.662724 -1.000000 -0.080277
v 2.498209 -1.000000 -0.080277
v 2.337276 -1.000000 -0.080277
v 2.662724 1.000000 -0.080276
v 2.498209 1.283660 -0.080276
v 2.337276 1.000000 -0.080276
usemtl 
s off
f 24//7 25//7 26//7
f 24//7 26//7 23//7
f 25//8 21//8 22//8
f 25//8 22//8 26//8
f 23//9 26//9 28//9
f 23//9 28//9 27//9
f 26//10 22//10 29//10
f 26//10 29//10 28//10
f 25//11 24//11 30//11
f 25//11 30//11 31//11
f 21//12 25//12 31//12
f 21//12 31//12 32//12
f 24//4 23//4 27//4
f 24//4 27//4 30//4
f 22//13 21//13 32//13
f 22//13 32//13 29//13
f 31//14 28//14 29//14
f 31//14 29//14 32//14
f 30//15 27//15 28//15
f 30//15 28//15 31//15
o Plane.006
v 3.337276 1.000000 0.000001
v 3.337276 -1.000000 -0.000001
v 3.662724 -1.000000 -0.000001
v 3.662724 1.000000 0.000001
v 3.498209 1.283660 0.000001
v 3.498209 -1.000000 -0.000001
v 3.662724 -1.000000 -0.080277
v 3.498209 -1.000000 -0.080277
v 3.337276 -1.000000 -0.080277
v 3.662724 1.000000 -0.080276
v 3.498209 1.283660 -0.080276
v 3.337276 1.000000 -0.080276
usemtl 
s off
f 36//7 37//7 38//7
f 36//7 38//7 35//7
f 37//8 33//8 34//8
f 37//8 34//8 38//8
f 35//9 38//9 40//9
f 35//9 40//9 39//9
f 38//10 34//10 41//10
f 38//10 41//10 40//10
f 37//11 36//11 42//11
f 37//11 42//11 43//11
f 33//12 37//12 43//12
f 33//12 43//12 44//12
f 36//4 35//4 39//4
f 36//4 39//4 42//4
f 34//13 33//13 44//13
f 34//13 44//13 41//13
f 43//14 40//14 41//14
f 43//14 41//14 44//14
f 42//15 39//15 40//15
f 42//15 40//15 43//15
o Plane.005
v 2.837276 1.000000 0.000001
v 2.837276 -1.000000 -0.000001
v 3.162724 -1.000000 -0.000001
v 3.162724 1.000000 0.000001
v 2.998209 1.283660 0.000001
v 2.998209 -1.000000 -0.000001
v 3.162724 -1.000000 -0.080277
v 2.998209 -1.000000 -0.080277
v 2.837276 -1.000000 -0.080277
v 3.162724 1.000000 -0.080276
v 2.998209 1.283660 -0.080276
v 2.837276 1.000000 -0.080276
usemtl 
s off
f 48//7 49//7 50//7
f 48//7 50//7 47//7
f 49//8 45//8 46//8
f 49//8 46//8 50//8
f 47//9 50//9 52//9
f 47//9 52//9 51//9
f 50//10 46//10 53//10
f 50//10 53//10 52//10
f 49//11 48//11 54//11
f 49//11 54//11 55//11
f 45//12 49//12 55//12
f 45//12 55//12 56//12
f 48//4 47//4 51//4
f 48//4 51//4 54//4
f 46//13 45//13 56//13
f 46//13 56//13 53//13
f 55//14 52//14 53//14
f 55//14 53//14 56//14
f 54//15 51//15 52//15
f 54//15 52//15 55//15
o Plane.004
v 0.837276 1.000000 0.000001
v 0.837276 -1.000000 -0.000001
v 1.162724 -1.000000 -0.000001
v 1.162724 1.000000 0.000001
v 0.998209 1.283660 0.000001
v 0.998209 -1.000000 -0.000001
v 1.162724 -1.000000 -0.080277
v 0.998209 -1.000000 -0.080277
v 0.837276 -1.000000 -0.080277
v 1.162724 1.000000 -0.080276
v 0.998209 1.283660 -0.080276
v 0.837276 1.000000 -0.080276
usemtl 
s off
f 60//7 61//7 62//7
f 60//7 62//7 59//7
f 61//8 57//8 58//8
f 61//8 58//8 62//8
f 59//9 62//9 64//9
f 59//9 64//9 63//9
f 62//10 58//10 65//10
f 62//10 65//10 64//10
f 61//11 60//11 66//11
f 61//11 66//11 67//11
f 57//12 61//12 67//12
f 57//12 67//12 68//12
f 60//4 59//4 63//4
f 60//4 63//4 66//4
f 58//13 57//13 68//13
f 58//13 68//13 65//13
f 67//14 64//14 65//14
f 67//14 65//14 68//14
f 66//15 63//15 64//15
f 66//15 64//15 67//15
o Plane.003
v 1.337276 1.000000 0.000001
v 1.337276 -1.000000 -0.000001
v 1.662724 -1.000000 -0.000001
v 1.662724 1.000000 0.000001
v 1.498209 1.283660 0.000001
v 1.498209 -1.000000 -0.000001
v 1.662724 -1.000000 -0.080277
v 1.498209 -1.000000 -0.080277
v 1.337276 -1.000000 -0.080277
v 1.662724 1.000000 -0.080276
v 1.498209 1.283660 -0.080276
v 1.337276 1.000000 -0.080276
usemtl 
s off
f 72//7 73//7 74//7
f 72//7 74//7 71//7
f 73//8 69//8 70//8
f 73//8 70//8 74//8
f 71//9 74//9 76//9
f 71//9 76//9 75//9
f 74//10 70//10 77//10
f 74//10 77//10 76//10
f 73//11 72//11 78//11
f 73//11 78//11 79//11
f 69//12 73//12 79//12
f 69//12 79//12 80//12
f 72//4 71//4 75//4
f 72//4 75//4 78//4
f 70//13 69//13 80//13
f 70//13 80//13 77//13
f 79//14 76//14 77//14
f 79//14 77//14 80//14
f 78//15 75//15 76//15
f 78//15 76//15 79//15
o Plane.002
v 0.337276 1.000000 0.000001
v 0.337276 -1.000000 -0.000001
v 0.662724 -1.000000 -0.000001
v 0.662724 1.000000 0.000001
v 0.498209 1.283660 0.000001
v 0.498209 -1.000000 -0.000001
v 0.662724 -1.000000 -0.080277
v 0.498209 -1.000000 -0.080277
v 0.337276 -1.000000 -0.080277
v 0.662724 1.000000 -0.080276
v 0.498209 1.283660 -0.080276
v 0.337276 1.000000 -0.080276
usemtl 
s off
f 84//7 85//7 86//7
f 84//7 86//7 83//7
f 85//8 81//8 82//8
f 85//8 82//8 86//8
f 83//9 86//9 88//9
f 83//9 88//9 87//9
f 86//10 82//10 89//10
f 86//10 89//10 88//10
f 85//11 84//11 90//11
f 85//11 90//11 91//11
f 81//12 85//12 91//12
f 81//12 91//12 92//12
f 84//4 83//4 87//4
f 84//4 87//4 90//4
f 82//13 81//13 92//13
f 82//13 92//13 89//13
f 91//14 88//14 89//14
f 91//14 89//14 92//14
f 90//15 87//15 88//15
f 90//15 88//15 91//15
o Plane.001
v 3.741893 -0.465788 -0.084732
v 3.741893 -0.626748 -0.084734
v -0.227823 -0.626747 -0.084734
v -0.227823 -0.465788 -0.084732
v -0.227823 -0.626747 -0.127972
v -0.227823 -0.465788 -0.127970
v 3.741893 -0.465788 -0.127970
v 3.741893 -0.626747 -0.127972
vn -0.000000 -1.000000 -0.000007
usemtl 
s off
f 93//1 96//1 95//1
f 93//1 95//1 94//1
f 95//2 96//2 98//2
f 95//2 98//2 97//2
f 96//3 93//3 99//3
f 96//3 99//3 98//3
f 93//4 94//4 100//4
f 93//4 100//4 99//4
f 94//16 95//16 97//16
f 94//16 97//16 100//16
f 99//6 100//6 97//6
f 99//6 97//6 98//6
o Plane
v -0.162724 1.000000 0.000001
v -0.162724 -1.000000 -0.000001
v 0.162724 -1.000000 -0.000001
v 0.162724 1.000000 0.000001
v -0.001791 1.283660 0.000001
v -0.001791 -1.000000 -0.000001
v 0.162724 -1.000000 -0.080277
v -0.001791 -1.000000 -0.080277
v -0.162724 -1.000000 -0.080277
v 0.162724 1.000000 -0.080276
v -0.001791 1.283660 -0.080276
v -0.162724 1.000000 -0.080276
usemtl 
s off
f 104//7 105//7 106//7
f 104//7 106//7 103//7
f 105//8 101//8 102//8
f 105//8 102//8 106//8
f 103//9 106//9 108//9
f 103//9 108//9 107//9
f 106//10 102//10 109//10
f 106//10 109//10 108//10
f 105//11 104//11 110//11
f 105//11 110//11 111//11
f 101//12 105//12 111//12
f 101//12 111//12 112//12
f 104//4 103//4 107//4
f 104//4 107//4 110//4
f 102//13 101//13 112//13
f 102//13 112//13 109//13
f 111//14 108//14 109//14
f 111//14 109//14 112//14
f 110//15 107//15 108//15
f 110//15 108//15 111//15
