# Blender v2.60 (sub 0) OBJ File: ''
# www.blender.org
o Cylinder
v 0.000000 2.000000 -2.000000
v 0.390181 2.000000 -1.961571
v 0.765367 2.000000 -1.847759
v 1.111140 2.000000 -1.662939
v 1.414214 2.000000 -1.414214
v 1.662939 2.000000 -1.111140
v 1.847759 2.000000 -0.765367
v 1.961571 2.000000 -0.390181
v 2.000000 2.000000 -0.000000
v 1.961571 2.000000 0.390180
v 1.847759 2.000000 0.765367
v 1.662939 2.000000 1.111140
v 1.414214 2.000000 1.414214
v 1.111140 2.000000 1.662939
v 0.765367 2.000000 1.847759
v 0.390180 2.000000 1.961571
v -0.000001 2.000000 2.000000
v -0.390181 2.000000 1.961570
v -0.765368 2.000000 1.847759
v -1.111141 2.000000 1.662939
v -1.414214 2.000000 1.414213
v -1.662940 2.000000 1.111139
v -1.847760 2.000000 0.765365
v -1.961571 2.000000 0.390179
v -2.000000 2.000000 -0.000002
v -1.961570 2.000000 -0.390183
v -1.847758 2.000000 -0.765369
v -1.662938 2.000000 -1.111143
v -1.414212 2.000000 -1.414215
v -1.111138 2.000000 -1.662941
v -0.765364 2.000000 -1.847760
v -0.390178 2.000000 -1.961571
v 0.000000 6.000000 0.000000
v 0.000000 2.000000 0.000000
v 0.000000 0.000000 -0.500000
v 0.097545 0.000000 -0.490393
v 0.191342 0.000000 -0.461940
v 0.277785 0.000000 -0.415735
v 0.353553 0.000000 -0.353553
v 0.415735 0.000000 -0.277785
v 0.461940 0.000000 -0.191342
v 0.490393 0.000000 -0.097545
v 0.500000 0.000000 -0.000000
v 0.490393 0.000000 0.097545
v 0.461940 0.000000 0.191342
v 0.415735 0.000000 0.277785
v 0.353553 0.000000 0.353553
v 0.277785 0.000000 0.415735
v 0.191342 0.000000 0.461940
v 0.097545 0.000000 0.490393
v -0.000000 0.000000 0.500000
v -0.097545 0.000000 0.490393
v -0.191342 0.000000 0.461940
v -0.277785 0.000000 0.415735
v -0.353554 0.000000 0.353553
v -0.415735 0.000000 0.277785
v -0.461940 0.000000 0.191341
v -0.490393 0.000000 0.097545
v -0.500000 0.000000 -0.000000
v -0.490393 0.000000 -0.097546
v -0.461940 0.000000 -0.191342
v -0.415734 0.000000 -0.277786
v -0.353553 0.000000 -0.353554
v -0.277785 0.000000 -0.415735
v -0.191341 0.000000 -0.461940
v -0.097544 0.000000 -0.490393
v 0.000001 2.000000 -0.500000
v 0.097546 2.000000 -0.490392
v 0.191343 2.000000 -0.461939
v 0.277786 2.000000 -0.415734
v 0.353554 2.000000 -0.353553
v 0.415735 2.000000 -0.277784
v 0.461940 2.000000 -0.191341
v 0.490393 2.000000 -0.097544
v 0.500000 2.000000 0.000001
v 0.490392 2.000000 0.097546
v 0.461940 2.000000 0.191342
v 0.415734 2.000000 0.277786
v 0.353553 2.000000 0.353554
v 0.277785 2.000000 0.415735
v 0.191342 2.000000 0.461940
v 0.097545 2.000000 0.490393
v 0.000000 2.000000 0.500000
v -0.097545 2.000000 0.490393
v -0.191341 2.000000 0.461940
v -0.277784 2.000000 0.415735
v -0.353552 2.000000 0.353554
v -0.415734 2.000000 0.277786
v -0.461939 2.000000 0.191343
v -0.490392 2.000000 0.097547
v -0.500000 2.000000 0.000002
v -0.490393 2.000000 -0.097543
v -0.461941 2.000000 -0.191339
v -0.415736 2.000000 -0.277783
v -0.353555 2.000000 -0.353551
v -0.277788 2.000000 -0.415733
v -0.191345 2.000000 -0.461939
v -0.097549 2.000000 -0.490392
v 0.000000 0.000000 0.000000
v 0.000000 2.000000 0.000000
vn 0.087754 0.445488 -0.890977
vn 0.259888 0.445488 -0.856737
vn 0.422036 0.445488 -0.789573
vn 0.567964 0.445488 -0.692067
vn 0.692067 0.445488 -0.567964
vn 0.789573 0.445488 -0.422036
vn 0.856737 0.445488 -0.259888
vn 0.890977 0.445488 -0.087754
vn 0.890977 0.445488 0.087753
vn 0.856737 0.445488 0.259888
vn 0.789573 0.445488 0.422035
vn 0.692067 0.445488 0.567965
vn 0.567965 0.445488 0.692067
vn 0.422035 0.445488 0.789573
vn 0.259888 0.445488 0.856737
vn 0.087753 0.445488 0.890977
vn -0.087754 0.445488 0.890977
vn -0.259888 0.445488 0.856737
vn -0.422036 0.445488 0.789573
vn -0.567965 0.445488 0.692066
vn -0.692067 0.445488 0.567964
vn -0.789574 0.445488 0.422035
vn -0.856737 0.445488 0.259887
vn -0.890977 0.445488 0.087753
vn -0.890977 0.445488 -0.087754
vn -0.856737 0.445488 -0.259889
vn -0.789573 0.445488 -0.422037
vn -0.692066 0.445488 -0.567965
vn -0.567964 0.445488 -0.692068
vn -0.422035 0.445488 -0.789574
vn -0.259887 0.445488 -0.856737
vn -0.087753 0.445488 -0.890977
vn -0.000000 -1.000000 0.000000
vn 0.000000 1.000000 -0.000000
vn -0.098016 0.000000 -0.995185
vn -0.098020 0.000000 -0.995184
vn -0.290291 0.000000 -0.956938
vn -0.290283 -0.000000 -0.956941
vn -0.471402 0.000000 -0.881918
vn -0.471395 -0.000000 -0.881922
vn -0.634398 0.000000 -0.773007
vn -0.634392 -0.000000 -0.773011
vn -0.773014 0.000000 -0.634389
vn -0.773010 -0.000000 -0.634394
vn -0.881924 0.000000 -0.471392
vn -0.881921 -0.000000 -0.471398
vn -0.956942 0.000000 -0.290280
vn -0.956940 -0.000000 -0.290286
vn -0.995185 0.000000 -0.098013
vn -0.995185 -0.000000 -0.098018
vn -0.995184 0.000000 0.098021
vn -0.995185 -0.000000 0.098016
vn -0.956939 0.000000 0.290288
vn -0.956941 -0.000000 0.290284
vn -0.881920 0.000000 0.471400
vn -0.881922 -0.000000 0.471396
vn -0.773009 0.000000 0.634395
vn -0.773011 -0.000000 0.634393
vn -0.634392 0.000000 0.773012
vn -0.634394 -0.000000 0.773010
vn -0.471395 0.000000 0.881922
vn -0.471397 -0.000000 0.881921
vn -0.290283 0.000000 0.956941
vn -0.290285 -0.000000 0.956940
vn -0.098016 0.000000 0.995185
vn -0.098018 -0.000000 0.995185
vn 0.098018 0.000000 0.995185
vn 0.098017 -0.000000 0.995185
vn 0.290285 -0.000000 0.956940
vn 0.471397 -0.000000 0.881921
vn 0.471396 -0.000000 0.881921
vn 0.634393 -0.000000 0.773011
vn 0.634393 0.000000 0.773010
vn 0.773010 -0.000000 0.634394
vn 0.773010 0.000000 0.634393
vn 0.881921 -0.000000 0.471398
vn 0.881921 0.000000 0.471396
vn 0.956940 -0.000000 0.290286
vn 0.956940 0.000000 0.290285
vn 0.995184 -0.000000 0.098019
vn 0.995185 0.000000 0.098017
vn 0.995185 -0.000000 -0.098015
vn 0.995185 0.000000 -0.098017
vn 0.956941 -0.000000 -0.290283
vn 0.956940 0.000000 -0.290284
vn 0.881922 -0.000000 -0.471395
vn 0.881921 0.000000 -0.471397
vn 0.773012 -0.000000 -0.634392
vn 0.773011 0.000000 -0.634393
vn 0.634395 -0.000000 -0.773009
vn 0.634393 0.000000 -0.773011
vn 0.471398 -0.000000 -0.881920
vn 0.471397 0.000000 -0.881921
vn 0.290286 -0.000000 -0.956940
vn 0.290284 0.000000 -0.956940
vn 0.098019 -0.000000 -0.995185
vn 0.098017 0.000000 -0.995185
usemtl 
s off
f 2//1 1//1 33//1
f 33//2 3//2 2//2
f 33//3 4//3 3//3
f 33//4 5//4 4//4
f 33//5 6//5 5//5
f 33//6 7//6 6//6
f 33//7 8//7 7//7
f 33//8 9//8 8//8
f 33//9 10//9 9//9
f 33//10 11//10 10//10
f 33//11 12//11 11//11
f 33//12 13//12 12//12
f 33//13 14//13 13//13
f 33//14 15//14 14//14
f 33//15 16//15 15//15
f 33//16 17//16 16//16
f 33//17 18//17 17//17
f 33//18 19//18 18//18
f 33//19 20//19 19//19
f 33//20 21//20 20//20
f 33//21 22//21 21//21
f 33//22 23//22 22//22
f 33//23 24//23 23//23
f 33//24 25//24 24//24
f 33//25 26//25 25//25
f 33//26 27//26 26//26
f 33//27 28//27 27//27
f 33//28 29//28 28//28
f 33//29 30//29 29//29
f 33//30 31//30 30//30
f 33//31 32//31 31//31
f 33//32 1//32 32//32
f 34//33 1//33 2//33
f 34//33 2//33 3//33
f 34//33 3//33 4//33
f 34//33 4//33 5//33
f 34//33 5//33 6//33
f 34//33 6//33 7//33
f 34//33 7//33 8//33
f 34//33 8//33 9//33
f 34//33 9//33 10//33
f 34//33 10//33 11//33
f 34//33 11//33 12//33
f 34//33 12//33 13//33
f 34//33 13//33 14//33
f 34//33 14//33 15//33
f 34//33 15//33 16//33
f 34//33 16//33 17//33
f 34//33 17//33 18//33
f 34//33 18//33 19//33
f 34//33 19//33 20//33
f 34//33 20//33 21//33
f 34//33 21//33 22//33
f 34//33 22//33 23//33
f 34//33 23//33 24//33
f 34//33 24//33 25//33
f 34//33 25//33 26//33
f 34//33 26//33 27//33
f 34//33 27//33 28//33
f 34//33 28//33 29//33
f 34//33 29//33 30//33
f 34//33 30//33 31//33
f 34//33 31//33 32//33
f 32//33 1//33 34//33
f 99//33 35//33 36//33
f 100//34 68//34 67//34
f 99//33 36//33 37//33
f 100//34 69//34 68//34
f 99//33 37//33 38//33
f 100//34 70//34 69//34
f 99//33 38//33 39//33
f 100//34 71//34 70//34
f 99//33 39//33 40//33
f 100//34 72//34 71//34
f 99//33 40//33 41//33
f 100//34 73//34 72//34
f 99//33 41//33 42//33
f 100//34 74//34 73//34
f 99//33 42//33 43//33
f 100//34 75//34 74//34
f 99//33 43//33 44//33
f 100//34 76//34 75//34
f 99//33 44//33 45//33
f 100//34 77//34 76//34
f 99//33 45//33 46//33
f 100//34 78//34 77//34
f 99//33 46//33 47//33
f 100//34 79//34 78//34
f 99//33 47//33 48//33
f 100//34 80//34 79//34
f 99//33 48//33 49//33
f 100//34 81//34 80//34
f 99//33 49//33 50//33
f 100//34 82//34 81//34
f 99//33 50//33 51//33
f 100//34 83//34 82//34
f 99//33 51//33 52//33
f 100//34 84//34 83//34
f 99//33 52//33 53//33
f 100//34 85//34 84//34
f 99//33 53//33 54//33
f 100//34 86//34 85//34
f 99//33 54//33 55//33
f 100//34 87//34 86//34
f 99//33 55//33 56//33
f 100//34 88//34 87//34
f 99//33 56//33 57//33
f 100//34 89//34 88//34
f 99//33 57//33 58//33
f 100//34 90//34 89//34
f 99//33 58//33 59//33
f 100//34 91//34 90//34
f 99//33 59//33 60//33
f 100//34 92//34 91//34
f 99//33 60//33 61//33
f 100//34 93//34 92//34
f 99//33 61//33 62//33
f 100//34 94//34 93//34
f 99//33 62//33 63//33
f 100//34 95//34 94//34
f 99//33 63//33 64//33
f 100//34 96//34 95//34
f 99//33 64//33 65//33
f 100//34 97//34 96//34
f 99//33 65//33 66//33
f 100//34 98//34 97//34
f 66//33 35//33 99//33
f 100//34 67//34 98//34
f 67//35 35//35 66//35
f 67//36 66//36 98//36
f 65//37 97//37 98//37
f 65//38 98//38 66//38
f 64//39 96//39 97//39
f 64//40 97//40 65//40
f 63//41 95//41 96//41
f 63//42 96//42 64//42
f 62//43 94//43 95//43
f 62//44 95//44 63//44
f 61//45 93//45 94//45
f 61//46 94//46 62//46
f 60//47 92//47 93//47
f 60//48 93//48 61//48
f 59//49 91//49 92//49
f 59//50 92//50 60//50
f 58//51 90//51 91//51
f 58//52 91//52 59//52
f 57//53 89//53 90//53
f 57//54 90//54 58//54
f 56//55 88//55 89//55
f 56//56 89//56 57//56
f 55//57 87//57 88//57
f 55//58 88//58 56//58
f 54//59 86//59 87//59
f 54//60 87//60 55//60
f 53//61 85//61 86//61
f 53//62 86//62 54//62
f 52//63 84//63 85//63
f 52//64 85//64 53//64
f 51//65 83//65 84//65
f 51//66 84//66 52//66
f 50//67 82//67 83//67
f 50//68 83//68 51//68
f 49//69 81//69 82//69
f 49//69 82//69 50//69
f 48//70 80//70 81//70
f 48//71 81//71 49//71
f 47//72 79//72 80//72
f 47//73 80//73 48//73
f 46//74 78//74 79//74
f 46//75 79//75 47//75
f 45//76 77//76 78//76
f 45//77 78//77 46//77
f 44//78 76//78 77//78
f 44//79 77//79 45//79
f 43//80 75//80 76//80
f 43//81 76//81 44//81
f 42//82 74//82 75//82
f 42//83 75//83 43//83
f 41//84 73//84 74//84
f 41//85 74//85 42//85
f 40//86 72//86 73//86
f 40//87 73//87 41//87
f 39//88 71//88 72//88
f 39//89 72//89 40//89
f 38//90 70//90 71//90
f 38//91 71//91 39//91
f 37//92 69//92 70//92
f 37//93 70//93 38//93
f 36//94 68//94 69//94
f 36//95 69//95 37//95
f 35//96 67//96 68//96
f 35//97 68//97 36//97
